<?xml version="1.0" standalone="no"?>
<!DOCTYPE svg PUBLIC "-//W3C//DTD SVG 20010904//EN"
 "http://www.w3.org/TR/2001/REC-SVG-20010904/DTD/svg10.dtd">
<svg version="1.0" xmlns="http://www.w3.org/2000/svg"
 width="681.000000pt" height="681.000000pt" viewBox="0 0 681.000000 681.000000"
 preserveAspectRatio="xMidYMid meet">

<g transform="translate(0.000000,681.000000) scale(0.100000,-0.100000)"
fill="#000000" stroke="none">
<path d="M3175 6709 c-548 -34 -1126 -242 -1589 -571 -887 -632 -1387 -1678
-1317 -2756 48 -731 305 -1353 790 -1906 493 -562 1181 -924 1961 -1033 175
-24 605 -24 780 0 884 123 1631 564 2154 1271 542 733 735 1704 516 2601 -199
812 -715 1516 -1435 1953 -423 257 -924 412 -1425 442 -182 11 -256 11 -435
-1z m485 -120 c533 -49 994 -209 1425 -495 1192 -791 1667 -2304 1143 -3639
-288 -731 -863 -1331 -1588 -1655 -983 -440 -2160 -312 -3023 327 -812 602
-1266 1536 -1234 2538 20 615 217 1192 575 1685 518 711 1311 1161 2187 1239
134 12 385 12 515 0z"/>
<path d="M3150 6509 c-692 -69 -1303 -350 -1789 -824 -73 -71 -169 -173 -213
-225 -358 -426 -583 -942 -664 -1520 -25 -176 -25 -578 0 -745 106 -723 412
-1313 931 -1794 450 -417 1034 -685 1665 -763 136 -17 525 -16 660 0 887 111
1651 580 2132 1312 240 365 388 757 459 1220 33 214 33 590 0 810 -49 324
-135 599 -281 895 -388 790 -1105 1360 -1965 1565 -210 50 -378 71 -620 75
-121 2 -263 -1 -315 -6z m210 -195 c0 -9 -9 -18 -20 -21 -28 -7 -31 -27 -20
-123 20 -175 8 -227 -62 -270 -46 -28 -169 -28 -215 0 -53 32 -65 60 -80 198
-17 151 -17 152 -42 152 -23 0 -37 18 -25 30 5 5 55 12 112 16 88 6 102 5 102
-8 0 -9 -11 -19 -25 -22 -18 -5 -25 -13 -25 -29 0 -64 24 -246 35 -275 18 -41
54 -56 104 -42 44 11 68 35 80 77 9 31 -9 249 -22 271 -5 6 -19 12 -33 12 -19
0 -25 5 -22 18 2 12 16 19 48 23 87 12 110 10 110 -7z m276 -5 c6 -5 53 -73
105 -151 l94 -141 6 39 c4 21 10 72 14 112 l7 72 -31 11 c-17 6 -31 15 -31 20
0 18 30 21 98 13 51 -7 68 -13 70 -26 3 -14 -3 -18 -22 -18 -36 0 -42 -18 -62
-205 -16 -154 -25 -185 -55 -185 -5 0 -62 79 -128 176 -100 147 -121 172 -125
153 -5 -23 -26 -208 -26 -227 0 -6 14 -15 30 -21 17 -5 30 -17 30 -26 0 -14
-10 -15 -72 -9 -105 10 -139 33 -70 47 35 7 36 11 54 192 l12 128 -27 21 c-47
38 -36 48 46 40 39 -3 77 -11 83 -15z m-902 -133 c60 -35 96 -97 103 -176 10
-108 -55 -199 -163 -229 -139 -39 -263 49 -281 198 -20 175 184 299 341 207z
m1640 -25 c37 -18 70 -39 73 -47 3 -7 -1 -33 -8 -56 -20 -61 -48 -59 -64 4
-15 60 -28 75 -76 88 -78 21 -154 -49 -180 -165 -21 -93 10 -165 77 -184 41
-11 50 -5 69 49 l16 45 -28 22 c-20 16 -25 25 -17 33 8 8 37 2 103 -21 89 -31
115 -54 69 -61 -16 -2 -27 -17 -43 -58 l-21 -55 -53 -3 c-109 -6 -223 51 -268
137 -55 104 -7 242 102 293 64 30 163 21 249 -21z m-2120 -90 c3 -5 -1 -14 -9
-21 -12 -10 -15 -40 -15 -149 0 -135 0 -138 30 -185 21 -32 35 -46 45 -42 8 3
22 9 30 12 28 11 16 -30 -13 -47 -154 -87 -162 -91 -168 -75 -4 10 2 23 15 34
l21 17 -29 51 c-26 45 -40 56 -145 113 -88 48 -122 62 -141 57 -20 -5 -25 -3
-25 11 0 12 31 35 94 71 52 28 97 52 100 52 15 0 4 -37 -15 -48 -20 -13 -17
-16 53 -59 106 -66 98 -69 98 41 l0 97 -27 -3 c-44 -5 -34 19 22 52 53 31 70
35 79 21z m2514 -90 c20 -10 46 -28 56 -40 11 -12 24 -21 31 -21 6 0 16 -5 22
-11 17 -17 -24 -109 -48 -109 -15 0 -19 8 -19 40 0 54 -17 86 -56 105 -74 35
-99 -32 -44 -118 82 -130 90 -179 36 -233 -29 -29 -41 -34 -80 -34 -56 0 -108
25 -155 74 -19 20 -43 36 -52 36 -10 0 -20 4 -23 9 -9 13 54 131 69 131 17 0
28 -31 19 -54 -11 -29 6 -84 35 -115 48 -52 111 -37 111 26 0 10 -22 56 -50
103 -53 90 -62 133 -36 179 29 52 115 67 184 32z m-1076 -277 c610 -78 1174
-433 1510 -949 232 -356 348 -749 348 -1175 0 -426 -116 -819 -348 -1175 -336
-516 -900 -871 -1510 -949 -158 -20 -406 -20 -564 0 -610 78 -1174 433 -1510
949 -232 356 -348 749 -348 1175 0 426 116 819 348 1175 332 510 896 868 1497
948 151 20 424 21 577 1z m1552 -63 l69 -69 -61 -126 -61 -126 32 14 c18 8 76
33 130 57 l98 43 61 -61 c42 -43 59 -66 55 -77 -5 -13 -11 -15 -26 -6 -11 5
-24 10 -30 10 -6 0 -61 -48 -122 -107 -110 -106 -110 -107 -104 -145 10 -56
-9 -49 -89 31 -47 47 -67 74 -63 85 7 18 23 21 32 6 15 -24 47 -3 145 95 58
58 102 105 98 105 -3 0 -82 -34 -174 -75 -109 -49 -171 -72 -178 -65 -6 6 13
61 54 157 34 81 69 164 77 183 12 30 -1 19 -93 -70 -60 -58 -112 -109 -116
-115 -4 -5 -1 -20 7 -32 41 -62 2 -56 -62 10 -37 36 -50 56 -44 66 7 11 13 10
35 -5 l27 -17 115 114 c107 106 129 139 104 154 -14 9 -12 35 3 35 7 0 43 -31
81 -69z m-3644 -64 c50 -39 30 -69 -32 -48 -31 11 -34 10 -80 -36 l-47 -48 55
-49 56 -49 25 26 c24 24 25 28 13 57 -10 24 -10 34 -1 43 9 9 25 -2 68 -46 44
-43 55 -59 46 -68 -9 -9 -19 -9 -43 1 -29 12 -33 11 -58 -13 l-26 -27 49 -50
c27 -27 57 -50 66 -50 21 0 89 77 89 100 0 9 -5 32 -11 49 -9 27 -9 36 3 48
13 13 20 9 56 -33 l42 -47 -126 -133 c-70 -74 -131 -134 -136 -134 -15 0 -22
30 -9 43 6 6 11 14 11 17 0 3 -54 57 -121 120 -107 100 -123 112 -140 102 -26
-16 -39 -15 -39 4 0 23 231 256 248 249 8 -3 27 -15 42 -28z m-345 -343 c0
-33 17 -63 114 -203 148 -214 155 -205 -129 -166 -204 27 -211 27 -230 10 -14
-13 -24 -15 -31 -8 -7 7 7 37 46 97 57 87 93 113 80 58 l-6 -28 131 -23 c72
-13 133 -21 135 -19 3 2 -30 52 -72 111 l-77 107 -20 -19 c-14 -13 -26 -17
-35 -12 -11 7 -10 16 9 47 64 106 84 117 85 48z m4453 -135 c49 -74 57 -99 31
-99 -6 0 -17 7 -25 15 -14 13 -31 4 -152 -78 -75 -51 -136 -97 -135 -102 0 -6
3 -19 5 -30 2 -11 -3 -20 -12 -22 -14 -3 -120 144 -120 166 0 20 22 22 41 6
18 -17 24 -15 154 71 135 88 136 89 130 122 -5 26 -3 32 12 32 11 0 38 -30 71
-81z m173 -302 c45 -98 47 -141 3 -94 -28 31 -16 34 -196 -51 -71 -34 -128
-67 -128 -74 0 -7 11 -31 23 -53 22 -39 25 -40 80 -43 44 -2 59 -7 67 -22 12
-23 2 -30 -78 -54 l-53 -15 -33 72 c-19 40 -52 112 -75 161 -27 60 -38 93 -31
100 6 6 16 4 28 -7 10 -9 23 -17 30 -17 6 0 73 29 149 64 131 61 138 66 141
96 5 52 30 32 73 -63z m-4541 -116 c-1 -3 -16 -44 -34 -91 -21 -53 -39 -86
-50 -88 -11 -3 -16 4 -16 23 0 25 -2 26 -52 23 l-52 -3 -23 -59 -23 -59 38
-33 37 -33 17 22 c13 17 20 19 29 10 9 -9 8 -22 -6 -55 -9 -24 -21 -53 -26
-65 -12 -31 -43 -19 -35 13 5 19 -16 43 -149 165 -114 104 -154 146 -149 158
3 9 9 24 12 34 4 18 18 19 215 16 206 -4 210 -3 224 18 13 19 44 22 43 4z
m4716 -331 c13 -47 23 -95 24 -107 0 -31 -24 -29 -38 2 -6 14 -16 25 -21 25
-15 0 -313 -78 -318 -84 -7 -6 19 -89 32 -104 7 -7 34 -19 61 -26 37 -9 50
-17 52 -33 3 -18 -4 -21 -63 -28 -37 -4 -70 -4 -73 0 -11 10 -91 328 -86 337
6 10 34 11 34 1 1 -38 24 -35 303 38 32 9 37 13 37 40 0 23 4 30 17 27 11 -2
23 -29 39 -88z m-4958 -131 c57 -19 61 -22 56 -47 -3 -15 -18 -92 -33 -172
-22 -114 -31 -146 -44 -148 -12 -2 -17 3 -17 17 0 13 -9 25 -22 31 -22 9 -279
60 -304 60 -6 0 -16 -12 -23 -26 -9 -20 -15 -23 -25 -15 -10 9 -10 28 6 108
10 54 23 102 27 106 14 14 33 -2 26 -22 -3 -10 1 -24 10 -31 24 -20 317 -73
326 -59 4 7 10 32 14 57 7 48 -5 69 -57 100 -26 15 -36 41 -21 55 9 10 12 9
81 -14z m5043 -295 c14 -80 14 -167 2 -171 -7 -3 -17 7 -23 21 -5 14 -14 26
-18 26 -25 0 -309 -31 -319 -35 -7 -2 -13 -16 -13 -30 0 -20 -4 -26 -17 -23
-15 3 -20 20 -27 101 -6 68 -5 102 2 109 8 8 14 4 23 -15 14 -32 15 -32 199
-12 74 8 138 15 143 15 4 0 7 11 7 23 0 53 32 46 41 -9z m-5183 -150 c80 -33
131 -111 132 -200 0 -140 -87 -228 -226 -227 -121 1 -202 76 -211 195 -7 78 7
126 50 175 60 68 170 93 255 57z m4825 -143 c6 -26 12 -30 49 -35 24 -4 97 -7
163 -9 l119 -2 14 28 c22 44 42 35 42 -20 0 -110 1 -108 -153 -223 l-141 -105
104 -8 c57 -4 109 -6 116 -3 7 3 14 15 16 28 2 12 11 24 21 26 14 3 17 -4 16
-35 -2 -110 -29 -169 -47 -101 l-8 33 -184 12 c-180 12 -199 17 -200 49 0 6
77 68 170 137 195 144 195 134 6 139 l-100 3 -10 -33 c-21 -73 -46 9 -31 106
7 49 30 57 38 13z m-4674 -436 c12 -52 20 -99 16 -105 -11 -17 -25 -11 -35 16
-6 14 -16 24 -23 21 -6 -2 -74 -19 -149 -38 -76 -18 -135 -35 -132 -38 2 -3
86 -14 186 -25 110 -13 183 -25 185 -32 2 -7 -62 -61 -143 -120 -81 -60 -155
-114 -163 -120 -8 -7 54 5 139 25 l155 37 3 38 c3 28 7 36 20 34 10 -2 22 -26
33 -73 21 -81 12 -106 -24 -62 l-22 27 -120 -31 c-66 -16 -137 -34 -157 -40
-32 -8 -37 -14 -40 -42 -2 -20 -8 -32 -17 -32 -10 0 -22 29 -38 90 -12 50 -23
93 -23 96 0 4 49 40 110 80 60 41 109 77 110 80 0 4 -61 13 -135 20 l-134 13
-20 85 c-21 94 -14 125 18 82 l19 -24 158 39 c155 38 159 40 162 67 2 18 9 27
21 27 13 0 22 -20 40 -95z m4815 -107 c56 -17 121 -84 136 -140 22 -78 -2
-193 -55 -275 -13 -20 -17 -20 -62 -9 -35 9 -49 18 -51 32 -2 16 6 23 44 35
58 17 88 54 87 105 -1 20 -10 48 -20 63 -25 35 -111 77 -172 86 -70 9 -136
-20 -157 -70 -20 -49 -11 -70 35 -83 55 -17 66 -15 79 13 12 25 26 32 36 16 3
-5 -7 -51 -22 -102 -28 -95 -50 -120 -62 -70 -4 18 -17 27 -60 40 l-55 17 1
84 c0 71 4 93 26 135 60 115 154 158 272 123z m-4784 -634 c24 -19 52 -47 61
-61 23 -35 32 -88 19 -113 -8 -15 -7 -26 7 -46 l17 -27 9 24 c27 70 40 97 62
122 13 15 27 27 30 27 8 0 25 -48 35 -99 11 -58 -4 -110 -41 -142 l-30 -26 48
-63 48 -64 7 43 c7 42 48 124 68 136 11 7 46 -64 56 -114 9 -46 -4 -100 -32
-126 l-24 -22 55 -59 54 -59 1 36 c0 40 22 109 44 140 14 20 15 19 41 -24 14
-25 30 -60 36 -79 12 -43 2 -105 -22 -129 -18 -18 -17 -19 35 -64 29 -25 55
-45 57 -45 2 0 5 20 5 45 1 25 9 66 19 91 16 43 18 45 36 28 10 -9 30 -36 44
-60 30 -51 35 -137 9 -165 -14 -16 -8 -22 88 -85 57 -37 105 -68 107 -70 1 -1
-3 -12 -11 -23 -14 -20 -16 -20 -88 30 -41 28 -87 61 -103 74 l-30 23 -22 -25
c-16 -19 -34 -27 -73 -31 -45 -4 -62 0 -117 27 -36 18 -65 36 -65 40 0 14 116
61 151 61 l34 0 -59 53 -59 53 -23 -23 c-35 -35 -113 -32 -179 6 -81 46 -84
56 -28 78 26 10 71 18 99 18 l51 0 -56 62 c-41 46 -58 59 -63 48 -21 -37 -113
-41 -168 -7 -32 20 -90 74 -90 83 0 13 111 31 156 26 l42 -4 -50 68 c-49 67
-50 67 -69 48 -44 -44 -153 -11 -219 68 l-31 38 28 6 c45 10 129 10 157 -1 14
-5 26 -6 26 -2 0 19 -29 46 -60 56 -18 6 -47 28 -63 48 -26 32 -31 48 -35 113
-6 89 1 92 68 39z m4598 -39 c-4 -65 -9 -81 -35 -113 -16 -20 -45 -42 -63 -48
-31 -10 -60 -37 -60 -56 0 -4 12 -3 26 2 28 11 112 11 157 1 l28 -6 -31 -38
c-66 -79 -175 -112 -219 -68 -19 19 -20 19 -69 -48 l-50 -68 42 4 c45 5 156
-13 156 -26 0 -9 -58 -63 -90 -83 -55 -34 -147 -30 -168 7 -5 11 -22 -2 -63
-48 l-56 -62 51 0 c28 0 73 -8 99 -18 56 -22 53 -32 -28 -78 -66 -38 -144 -41
-179 -6 l-23 23 -59 -53 -59 -53 34 0 c35 0 151 -47 151 -61 0 -4 -29 -22 -65
-40 -55 -27 -72 -31 -117 -27 -39 4 -57 12 -73 31 l-22 25 -30 -23 c-16 -13
-62 -46 -103 -74 -72 -50 -74 -50 -88 -30 -8 11 -12 22 -11 23 2 2 50 33 107
70 96 63 102 69 88 85 -26 28 -21 114 9 165 14 24 34 51 44 60 18 17 20 15 36
-28 10 -25 18 -66 19 -91 0 -25 3 -45 5 -45 2 0 28 20 57 45 52 45 53 46 35
64 -24 24 -34 86 -22 129 6 19 22 54 36 79 26 43 27 44 41 24 22 -31 44 -100
44 -140 l1 -36 54 59 55 59 -24 22 c-28 26 -41 80 -32 126 10 50 45 121 56
114 20 -12 61 -94 68 -136 l7 -43 48 64 48 63 -30 26 c-37 32 -52 84 -41 142
10 51 27 99 35 99 3 0 17 -12 30 -27 22 -25 35 -52 62 -122 l9 -24 17 27 c14
20 15 31 7 46 -13 25 -4 78 19 113 21 32 101 97 120 97 11 0 13 -16 9 -75z
m-1212 -990 c29 -20 54 -75 54 -119 0 -48 -54 -109 -120 -133 l-48 -18 20 -53
20 -53 41 3 c73 5 50 -21 -56 -63 -54 -22 -103 -37 -108 -34 -14 9 -11 26 7
39 13 10 8 30 -45 166 -57 149 -61 155 -88 155 -18 0 -28 5 -28 15 0 9 42 32
115 62 124 51 197 61 236 33z m-1946 -25 c25 -12 59 -34 77 -47 l32 -25 -17
-46 c-13 -34 -23 -47 -37 -47 -15 0 -21 10 -27 45 -15 88 -99 127 -175 80 -55
-33 -109 -162 -98 -230 9 -52 55 -100 96 -100 26 0 32 6 50 47 l20 48 -28 22
c-20 16 -25 25 -17 33 17 17 196 -58 192 -79 -2 -9 -12 -16 -23 -16 -14 0 -27
-14 -41 -45 -12 -25 -27 -51 -34 -58 -28 -31 -193 18 -253 76 -58 55 -82 127
-66 201 14 65 60 128 112 152 58 27 173 22 237 -11z m307 -104 c171 -34 218
-63 218 -136 0 -53 -22 -87 -67 -107 -34 -15 -36 -18 -23 -33 9 -10 24 -48 34
-85 11 -38 26 -72 35 -77 9 -5 16 -16 16 -25 0 -13 -8 -14 -47 -8 -96 14 -105
24 -117 128 -8 59 -31 97 -60 97 -17 0 -24 -18 -32 -84 -6 -49 -5 -52 21 -64
21 -10 25 -15 16 -26 -9 -11 -27 -10 -103 6 -51 10 -96 22 -101 27 -12 12 2
34 17 28 7 -3 17 -2 23 1 6 4 25 78 43 166 l33 158 -23 18 c-13 10 -20 22 -16
29 9 14 -9 15 133 -13z m1223 0 c0 -8 -9 -17 -19 -21 -30 -9 -31 -25 -10 -131
10 -55 19 -123 19 -153 0 -48 -3 -57 -38 -91 -60 -60 -159 -77 -238 -41 -54
24 -76 72 -100 215 -18 103 -21 110 -46 120 -61 23 -15 46 127 62 47 6 55 4
55 -10 0 -9 -4 -16 -8 -16 -5 0 -16 -6 -25 -12 -16 -12 -15 -22 8 -140 27
-141 34 -160 70 -184 52 -34 138 12 150 80 3 17 -5 85 -18 151 l-23 120 -32 3
c-52 5 -38 34 23 48 71 17 105 17 105 0z m-573 -92 c127 -79 129 -281 4 -369
-40 -28 -49 -30 -130 -30 -80 0 -91 2 -129 29 -111 76 -123 256 -24 349 68 65
193 74 279 21z"/>
<path d="M2513 6126 c-25 -22 -28 -30 -27 -83 2 -72 43 -179 85 -219 41 -39
92 -39 127 1 22 26 24 35 19 85 -8 76 -44 165 -83 206 -39 42 -80 45 -121 10z"/>
<path d="M3225 5649 c-729 -69 -1373 -510 -1685 -1154 -145 -298 -213 -599
-213 -935 0 -459 141 -883 413 -1245 600 -799 1691 -1061 2585 -621 843 415
1307 1333 1139 2252 -194 1060 -1172 1804 -2239 1703z m525 -78 c419 -74 788
-266 1091 -570 312 -313 500 -677 576 -1116 24 -139 24 -480 0 -620 -80 -461
-294 -864 -628 -1180 -290 -275 -648 -450 -1064 -522 -140 -24 -490 -24 -630
0 -363 63 -685 206 -958 427 -922 743 -1012 2135 -193 2979 339 348 747 552
1236 616 145 19 419 13 570 -14z"/>
<path d="M2120 4395 c0 -371 1 -374 67 -437 61 -59 54 -58 633 -58 l530 0 0
316 c0 208 -4 330 -11 355 -16 50 -61 105 -112 132 -42 22 -46 22 -574 25
l-533 3 0 -336z"/>
<path d="M3628 4716 c-52 -19 -83 -40 -111 -78 -44 -60 -47 -84 -47 -419 l0
-319 530 0 c579 0 572 -1 633 58 66 63 67 67 67 437 l0 335 -517 0 c-406 -1
-526 -4 -555 -14z"/>
<path d="M2330 3748 c-76 -29 -160 -114 -188 -191 -22 -57 -22 -68 -22 -622
l0 -565 350 0 349 0 3 503 3 503 27 41 c49 74 39 73 557 73 440 0 464 -1 500
-20 22 -11 50 -36 62 -57 l24 -38 3 -502 3 -503 349 0 350 0 0 565 c0 554 0
565 -22 622 -29 79 -112 162 -191 191 l-58 22 -1022 -1 c-1015 0 -1022 0
-1077 -21z"/>
<path d="M3313 3375 c-126 -27 -256 -123 -315 -232 -73 -134 -76 -310 -7 -445
28 -54 122 -153 177 -185 136 -80 323 -84 467 -11 22 12 67 47 101 80 193 185
193 481 0 666 -72 70 -143 108 -235 128 -80 17 -107 16 -188 -1z"/>
<path d="M994 4504 c33 -30 62 -54 65 -54 4 0 14 20 23 45 20 52 23 50 -87 59
l-60 4 59 -54z"/>
<path d="M777 3646 c-63 -17 -87 -40 -87 -85 0 -74 47 -101 176 -101 121 0
184 34 184 100 0 25 -7 43 -22 58 -43 39 -159 52 -251 28z"/>
<path d="M4363 1368 c-18 -5 -33 -10 -33 -11 0 -5 61 -160 66 -168 7 -12 60
17 68 36 11 30 6 70 -14 102 -25 42 -47 52 -87 41z"/>
<path d="M2886 1172 c-23 -103 -23 -102 29 -102 36 0 48 5 60 24 42 64 23 130
-41 142 l-32 6 -16 -70z"/>
<path d="M3367 1179 c-36 -21 -51 -70 -52 -164 0 -70 5 -99 20 -130 36 -71
104 -81 149 -22 15 20 21 47 24 111 6 106 -2 147 -34 186 -27 32 -71 40 -107
19z"/>
</g>
</svg>
